<svg id="组_16" data-name="组 16" xmlns="http://www.w3.org/2000/svg" width="285.714" height="285.714" viewBox="0 0 285.714 285.714">
  <rect id="矩形_7" data-name="矩形 7" width="285.714" height="285.714" fill="none"/>
  <g id="组_12" data-name="组 12" transform="translate(18.929 142.253) rotate(-45)">
    <path id="矩形_14" data-name="矩形 14" d="M17.809,0H53.428A17.809,17.809,0,0,1,71.237,17.809v0A17.809,17.809,0,0,1,53.428,35.618H0a0,0,0,0,1,0,0V17.809A17.809,17.809,0,0,1,17.809,0Z" transform="translate(142.473 103.41) rotate(90)"/>
    <path id="矩形_15" data-name="矩形 15" d="M15.486,0h55.75a0,0,0,0,1,0,0V55.75A15.486,15.486,0,0,1,55.75,71.237h0A55.75,55.75,0,0,1,0,15.486v0A15.486,15.486,0,0,1,15.486,0Z" transform="translate(0 103.41)"/>
    <path id="矩形_6" data-name="矩形 6" d="M24.968,0A24.933,24.933,0,1,1,0,24.968,24.848,24.848,0,0,1,24.968,0Z" transform="translate(174.791 0) rotate(90)"/>
    <path id="联合_1_-_轮廓" data-name="联合 1 - 轮廓" d="M106.855,71.237H71.237V35.619H14.247A14.248,14.248,0,0,1,0,21.371V14.247A14.247,14.247,0,0,1,14.247,0H92.608a14.247,14.247,0,0,1,14.247,14.247Z" transform="translate(0 32.173)"/>
  </g>
</svg>
